#tb 0: 1/25
0,          0,          0,        1,  1382400, 0xea27f7bd
0,          1,          1,        1,  1382400, 0xce3d7b4c
0,          2,          2,        1,  1382400, 0xaea4970e
0,          3,          3,        1,  1382400, 0xcbc7c89f
0,          4,          4,        1,  1382400, 0xe5367019
0,          5,          5,        1,  1382400, 0xb92ca18e
0,          6,          6,        1,  1382400, 0xde046be1
0,          7,          7,        1,  1382400, 0x1ae6e393
